<?xml version="1.0" encoding="utf-8"?>
<!-- Svg Vector Icons : http://www.onlinewebfonts.com/icon -->
<!DOCTYPE svg PUBLIC "-//W3C//DTD SVG 1.1//EN" "http://www.w3.org/Graphics/SVG/1.1/DTD/svg11.dtd">
<svg version="1.1" xmlns="http://www.w3.org/2000/svg" xmlns:xlink="http://www.w3.org/1999/xlink" x="0px" y="0px" viewBox="0 0 256 256" enable-background="new 0 0 256 256" xml:space="preserve">
<metadata> Svg Vector Icons : http://www.onlinewebfonts.com/icon </metadata>
<g><g><g><path fill="#000000" d="M196.6,10.6c-9.9,2.8-18.3,12.9-29.3,35.1c-3.3,6.8-4.6,9-4.9,8.3c-1.8-5.5-6.1-11.3-10.5-14.1c-2-1.3-2.7-2-3.1-3.4c-1.4-4.9-6.4-10.1-11.6-12.2c-2.9-1.2-3.1-1.4-3.8-3.4c-2.5-6.9-10.6-10.8-17.6-8.4c-2.7,0.9-2.7,0.9-5.3,0c-3.6-1.3-7.8-1-11.1,0.8c-3,1.6-6.7,5.5-7.7,8.1c-0.6,1.7-1.1,2.1-3.4,3.1c-5.2,2.2-10.2,8.8-11,14.4c-0.3,2.2-0.3,2.2-3.7,3.8c-9.3,4.6-14.2,15.5-11.1,25c0.2,0.6-0.3,2-1.3,4c-1.4,2.8-1.5,3.4-1.5,7c0,2.2,0.1,4.6,0.4,5.3c0.3,1.2,0.2,1.2-2.3-0.9c-3.9-3.2-7.9-4.9-11.9-5.2c-3.3-0.2-3.4-0.2-4.6,1.3c-2.7,3.2-0.5,6.9,4.2,6.9c2.3,0,5.1,1.3,7.5,3.5l1.9,1.7L51,93c-12.3,4.6-17.9,12.6-16.1,23.1c0.4,2.3,0.4,3.5,0,4.8c-0.4,1.3,0.2,11.9,3,51.5c1.9,27.4,3.7,51.3,4,53.2c1.1,7.7,6.1,14.4,13.7,18.1l4.1,2l62.8,0.1c56.4,0.1,63,0,65.3-0.6c5.8-1.7,10.7-5.3,14.1-10.4c3.5-5.3,3.2-3,7.4-62.4l3.8-54.1l-1-1.3c-0.6-0.7-1.6-1.7-2.3-2c-0.7-0.4-1.3-0.7-1.4-0.7c0,0,0.9-3.7,2.2-8.2c5.9-20.8,9.5-42,10.7-62.8c0.7-11.3,0.3-14.1-3.1-20.9C213.2,12.7,205.1,8.3,196.6,10.6z M204.8,19c3.6,1.5,6.3,5.3,7.8,11c0.6,2.3,0.6,4.2,0.4,10c-0.9,21.1-5.3,46.5-11.8,67.8c-3.1,10.4-2.3,9.2-8.7,12.1c-4.8,2.2-5.9,2.5-8.5,2.6c-2.3,0-3.5-0.2-4.9-0.9c-1-0.6-3.4-1.8-5.4-2.8c-4.6-2.5-9-3.2-13.8-2.5c-3.3,0.5-5.9,1.6-11.6,4.7c-1.4,0.8-3.1,1.3-3.6,1.3c-0.9-0.1-0.8-0.6,2.4-10.3c6-18.1,9-24.9,23.3-53.9c10.4-21,14.4-28,19.1-33C195,19.2,200.2,17.1,204.8,19z M109,20.9c0.6,0.4,1.9,1.4,2.7,2.2l1.5,1.4l1.8-1.7c2.2-2.1,3.3-2.7,5.6-2.7c3.8,0,5.9,3.1,5.4,8.1l-0.3,3h3.5c7.6,0,11.8,3.5,12.6,10.7l0.3,2.6l2.9,1.1c3.9,1.4,8.1,5.6,9.3,9.2c1,3.1,1,8,0,10.8c-1.1,3.2-1.6,3.4-4.2,1.6c-1.2-0.9-3.6-2.4-5.3-3.3c-3-1.7-3.7-2.6-2.6-3.3c1.9-1.1,2.8-6.9,1.8-10.5c-1-3.5-5.3-6.8-8.9-6.8c-2.9,0-27.2,5.5-29.2,6.6c-2.1,1.2-4.3,4.4-4.7,6.7c-0.4,2.2,0.7,6.6,2.1,8.5c0.6,0.8,1.9,1.9,3.1,2.6c1.1,0.6,1.9,1.3,1.9,1.6c0,0.2-1.2,2.1-2.8,4.2c-4.3,5.6-6.5,10.8-6.5,15c0,1.4,0,1.4-4-2.5C86.8,78,79.6,76.5,71,80.8c-1.5,0.7-2.8,1.3-2.9,1.3c-0.1,0-0.2-1.2-0.2-2.7c0-3.1,0.9-4.8,3.6-7l1.8-1.4l-1.6-3.2c-1.4-2.8-1.7-3.7-1.6-6.3c0-7.6,4.4-11.9,12.8-12.5c2.2-0.1,4-0.4,4-0.6c0-0.1-0.3-1.4-0.7-2.8c-1.3-5-0.6-8.5,2.3-11.4c2-2,4.3-3,7.3-3c2.9,0,3.1-0.2,3.1-3.4c0-3.5,1.1-5.8,3.2-6.9C104.1,19.9,107.6,19.9,109,20.9z M135.7,53c0.2,0.8,0.2,1.5,0.1,1.6c-0.1,0.1-5.9,1.5-12.8,3c-13.3,2.9-13.4,2.9-13.4,0.6c0-0.9,0.4-1.1,3.4-1.8c1.8-0.4,7.4-1.6,12.4-2.7c5-1.1,9.3-2,9.6-2.1C135.1,51.6,135.5,52.2,135.7,53z M135,66.5c1.1,2.2,1.6,2.6,5.8,5c4.6,2.6,9.5,6.8,9.5,8.1c0,0.4-1.3,3.7-2.7,7.3l-2.8,6.6l-2.2,0.8c-3.3,1.1-6.5,2.9-11.9,6.4c-6.9,4.5-9,5.3-15.1,5.3c-2.7,0-5-0.1-5.2-0.2c-0.1-0.1-0.9-3.4-1.7-7.2c-2.1-10.3-1.6-13.1,4-20.6c3.2-4.2,4-6,3.8-8.5l-0.1-1.9l7.6-1.7c4.2-0.9,8.1-1.7,8.8-1.7C133.6,64.1,134,64.6,135,66.5z M84.3,87.9c2.9,1.3,6.3,5,9.6,10c4.8,7.4,6,10.9,6,18c0,5-0.3,6.5-1.4,6.5c-0.4,0-3.3-1.2-6.3-2.8c-6.1-3.1-9.7-4-14.1-3.5c-3.6,0.4-5.1,0.9-10.6,3.6c-4.5,2.2-5,2.4-8.2,2.4c-3.1,0-3.8-0.1-7-1.9c-2-1.1-4.8-2.5-6.2-3.2c-1.4-0.7-2.7-1.6-2.9-1.8c-0.2-0.3-0.3-1.9-0.2-3.5c0.3-5.7,2.8-8.1,12.1-11.3c6.6-2.3,8.2-3.2,13.4-7.6C75.3,86.9,79.5,85.6,84.3,87.9z M138.3,111.6c-1.4,4.3-2.6,8.1-2.7,8.3c-0.1,0.4-1.1,0.1-3.2-1c-5.3-3-12.3-3.7-17.6-1.8c-2,0.6-2.5,0.4-2.5-1.5c0-0.9,0.3-1,4.1-1.3c7.5-0.6,11.9-2.2,19.7-7.5c2.5-1.7,4.7-3.1,4.7-3.1C140.8,103.9,139.7,107.4,138.3,111.6z M88.9,127.5c7.2,3.7,10.6,4.3,16.3,2.9c2.1-0.5,4.9-1.5,6.2-2.2c7.1-3.7,6.9-3.7,10.1-3.7c2.9,0,3.5,0.2,8.8,2.9c3.6,1.8,6.7,3.1,8.4,3.4c5.1,0.9,10.6-0.4,16.7-3.9c4-2.3,4.3-2.4,7.6-2.4c3.4,0,3.7,0.1,7.6,2.4c5.1,2.9,8.4,3.9,13.1,3.9c4.6,0,6.4-0.5,13.7-3.8c3.3-1.5,6.1-2.6,6.2-2.5c0.1,0.1-1.3,23-3.2,50.8c-3.2,46.1-3.6,50.8-4.6,53.3c-1.3,3.7-4.4,6.8-8,8.1l-2.7,1l-62.6-0.1l-62.6-0.1l-2-1.1c-3.2-1.7-5.4-4-6.8-7.1l-1.3-2.8L46.5,176c-1.9-27.8-3.5-50.6-3.5-50.7c0,0,1.7,0.7,3.5,1.7c4.7,2.5,7.7,3.3,12.7,3.3c5,0,8-0.8,12.6-3.3C78.8,123.4,81,123.4,88.9,127.5z"/><path fill="#000000" d="M203.3,38.2c-0.6,0.5-1.2,1.3-1.2,1.7c0,0.4-0.7,1.4-1.6,2.3c-1.5,1.5-1.8,1.6-3.6,1.3c-1.1-0.1-3.1-0.4-4.5-0.6c-5.1-0.6-10.2,1.9-13.2,6.5c-2.4,3.5-1.9,6.3,1.1,7.5c2.3,1,4.1,0.1,5.7-2.8c1.7-3.1,3.2-3.8,6.2-3c1.3,0.3,3.3,0.6,4.7,0.5c6.3,0,12.6-4.8,13.1-10c0.2-1.8,0.1-2.2-0.9-3.2C207.4,37,205.1,36.8,203.3,38.2z"/><path fill="#000000" d="M198.7,64.6c-0.6,0.5-1.6,1.9-2.2,3.1c-1.5,3.1-3.2,4-6.7,3.6c-5.8-0.6-11-0.4-13.3,0.6c-4.4,2-8.7,7.1-8.7,10.4c0,2.4,1.6,4.1,3.8,4.1c2,0,3.3-1,4.6-3.7c1.2-2.3,3.5-4.2,5.4-4.2c0.6,0,2.6,0.3,4.3,0.8c2.6,0.6,3.7,0.6,5.8,0.3c7-1.3,13.1-6.8,13-11.8C204.8,64.3,201.4,62.5,198.7,64.6z"/><path fill="#000000" d="M188.8,93.5c-0.6,0.4-1.4,1.5-1.8,2.5c-0.9,2.2-2.9,4-5,4.4c-0.9,0.1-3,0-4.9-0.6c-2.8-0.6-3.8-0.7-6.1-0.3c-5.1,0.9-9.4,3.8-11.8,7.8c-1.8,3-1.7,5,0.2,6.7c0.8,0.7,2,1.3,2.6,1.3c1.6,0,3.4-1.6,4.4-3.9c1.3-3.1,3.2-4.1,6.8-3.7c1.5,0.2,4.7,0.3,6.9,0.4c3.7,0,4.4-0.1,6.9-1.3c4.5-2.3,8.2-6.9,8.2-10.4C195.2,93.5,191.4,91.7,188.8,93.5z"/><path fill="#000000" d="M57.8,180.8c-2.6,1.1-3.3,4.6-1.3,6.7l1.2,1.2h16.1c15.3,0,16.1,0,17.3-0.9c1.4-1.2,1.9-3,1.2-4.7c-1.1-2.6-1.7-2.7-18.3-2.6C65.7,180.4,58.3,180.5,57.8,180.8z"/><path fill="#000000" d="M57.8,197.4c-2.6,1.1-3.3,4.6-1.3,6.7l1.2,1.2H78c17.8,0,20.3-0.1,21.3-0.7c1.6-1.1,2.1-2.8,1.4-4.7c-0.9-2.9-1-2.9-22.5-2.9C67.5,197,58.3,197.2,57.8,197.4z"/><path fill="#000000" d="M56.7,215c-0.9,0.9-1.3,1.8-1.3,2.8c0,1,0.4,1.9,1.3,2.8L58,222h24.2c16.4,0,24.4-0.1,25.1-0.5c1.4-0.8,2.3-3.3,1.7-5c-1-2.9-0.7-2.8-27-2.8H58L56.7,215z"/><path fill="#000000" d="M119.9,214.2c-2.4,1.4-2.9,4.7-0.9,6.6c1.1,1.1,1.4,1.2,6.9,1.2c5.6,0,5.9,0,6.9-1.2c0.8-0.8,1.2-1.6,1.2-2.9c0-1.9-0.6-2.9-2.2-3.8C130.6,213.5,121.2,213.5,119.9,214.2z"/></g></g></g>
</svg>